<?xml version="1.0" encoding="utf-8"?>
<!-- Generator: Adobe Illustrator 24.0.1, SVG Export Plug-In . SVG Version: 6.00 Build 0)  -->
<svg version="1.1" id="Layer_1" xmlns="http://www.w3.org/2000/svg" xmlns:xlink="http://www.w3.org/1999/xlink" x="0px" y="0px"
	 viewBox="0 0 600 400" style="enable-background:new 0 0 600 400;" xml:space="preserve">
<style type="text/css">
	.st0{fill:url(#SVGID_1_);}
	.st1{fill:url(#SVGID_2_);}
	.st2{fill:url(#SVGID_3_);}
	.st3{fill:url(#SVGID_4_);}
	.st4{fill:url(#SVGID_5_);}
	.st5{fill:url(#SVGID_6_);}
	.st6{fill:url(#SVGID_7_);}
	.st7{fill:url(#SVGID_8_);}
	.st8{fill:url(#SVGID_9_);}
	.st9{fill:url(#SVGID_10_);}
	.st10{fill:url(#SVGID_11_);}
	.st11{fill:url(#SVGID_12_);}
	.st12{fill:url(#SVGID_13_);}
	.st13{fill:url(#SVGID_14_);}
	.st14{fill:url(#SVGID_15_);}
	.st15{fill:url(#SVGID_16_);}
	.st16{fill:url(#SVGID_17_);}
	.st17{fill:url(#SVGID_18_);}
	.st18{fill:url(#SVGID_19_);}
	.st19{fill:url(#SVGID_20_);}
	.st20{fill:url(#SVGID_21_);}
	.st21{fill:#156DAF;}
	.st22{fill:#13AA85;}
	.st23{fill:#FFFFFF;}
	.st24{fill:#00495A;}
</style>
<g>
	<path class="st21" d="M341.4,181.66c0,1.34-0.04,2.67-0.1,3.99c-0.02,0.66-0.06,1.32-0.11,1.96c-0.09,1.15-0.19,2.31-0.32,3.44
		c-0.05,0.5-0.11,0.98-0.17,1.47c-0.02,0.17-0.05,0.35-0.07,0.52c-0.08,0.57-0.16,1.13-0.25,1.69c-0.07,0.52-0.16,1.03-0.26,1.54
		c-0.29,1.66-0.63,3.3-1.03,4.93c-0.14,0.57-0.28,1.13-0.43,1.69c-0.25,0.97-0.52,1.93-0.81,2.88c-0.15,0.47-0.29,0.93-0.45,1.39
		c-0.51,1.61-1.08,3.2-1.7,4.77c-0.3,0.76-0.61,1.51-0.93,2.26c-0.21,0.52-0.45,1.04-0.68,1.55c-0.17,0.41-0.36,0.82-0.56,1.22
		c-1.32,2.81-2.8,5.51-4.41,8.14c-0.4,0.65-0.81,1.28-1.23,1.91c-0.44,0.67-0.89,1.34-1.35,2c-0.32,0.46-0.65,0.92-0.98,1.38
		c-1.15,1.6-2.38,3.16-3.65,4.66c-0.43,0.51-0.88,1.03-1.33,1.53c-0.33,0.4-0.68,0.78-1.04,1.15c-0.42,0.46-0.84,0.92-1.28,1.37
		c-0.52,0.55-1.04,1.07-1.58,1.59c-0.29,0.29-0.58,0.57-0.88,0.85c0,0-0.01,0.03-0.02,0.03c-0.47,0.46-0.96,0.91-1.44,1.34
		c-0.6,0.56-1.22,1.11-1.84,1.63c-0.76,0.66-1.54,1.3-2.32,1.93c-0.71,0.56-1.43,1.12-2.16,1.66c-0.63,0.47-1.28,0.93-1.92,1.39
		c-0.1,0.06-0.2,0.14-0.3,0.21c-0.53,0.37-1.07,0.73-1.62,1.09c-0.86,0.56-1.73,1.1-2.6,1.64c-0.51,0.31-1.03,0.62-1.55,0.92
		c-1.88,1.09-3.8,2.1-5.78,3.04c-0.87,0.41-1.76,0.82-2.66,1.2c-10.1,4.4-21.25,6.83-32.97,6.83c-3.51,0-6.97-0.22-10.37-0.65
		c-0.46-0.06-0.92-0.12-1.38-0.19c-3.46-0.5-6.86-1.2-10.17-2.11c-35.08-9.6-60.86-41.71-60.86-79.84c0-45.74,37.06-82.8,82.79-82.8
		c15.08,0,29.23,4.04,41.4,11.08c0.7,0.4,1.37,0.81,2.05,1.23c0.67,0.41,1.34,0.83,2.01,1.28c0.04,0.02,0.09,0.05,0.13,0.07
		c0.62,0.41,1.23,0.83,1.84,1.25c1.18,0.82,2.34,1.68,3.47,2.56c0.34,0.26,0.66,0.52,0.99,0.78c0.4,0.34,0.81,0.66,1.2,0.99
		c0.45,0.37,0.89,0.76,1.34,1.14c0.07,0.06,0.15,0.14,0.22,0.2c0.35,0.3,0.68,0.61,1.02,0.91c0.37,0.34,0.73,0.68,1.11,1.03
		c0.5,0.46,0.98,0.93,1.45,1.4c0.04,0.04,0.08,0.08,0.11,0.11c0.48,0.47,0.96,0.95,1.43,1.45c0.62,0.64,1.24,1.3,1.84,1.97
		c0.5,0.54,0.98,1.11,1.45,1.66c0.93,1.09,1.84,2.21,2.71,3.35c0.3,0.38,0.58,0.77,0.88,1.17c1.81,2.45,3.49,5.01,5.02,7.65
		c0.3,0.5,0.58,1.01,0.86,1.52c0.05,0.07,0.09,0.15,0.12,0.22c0.37,0.67,0.72,1.34,1.07,2.01c0.31,0.6,0.6,1.19,0.88,1.79
		c0.41,0.85,0.81,1.69,1.18,2.53v0.01c0.82,1.85,1.58,3.74,2.25,5.66c0.16,0.43,0.31,0.87,0.46,1.32c0.26,0.78,0.52,1.59,0.76,2.39
		c0.21,0.67,0.41,1.36,0.58,2.04c0.14,0.45,0.25,0.91,0.36,1.37c0.12,0.47,0.25,0.94,0.36,1.43c0.01,0.05,0.03,0.1,0.04,0.16
		c0.37,1.6,0.7,3.22,0.98,4.86v0.01c0.26,1.4,0.46,2.83,0.63,4.26C341.2,175,341.4,178.31,341.4,181.66z"/>
	<path class="st22" d="M424.19,181.66c0,38.14-25.79,70.24-60.88,79.84c-3.3,0.91-6.69,1.61-10.14,2.1l-0.01,0.01
		c-0.46,0.07-0.91,0.13-1.37,0.19c-3.4,0.42-6.87,0.65-10.39,0.65c-1.11,0-2.22-0.03-3.32-0.08c-3.93-0.15-7.79-0.59-11.56-1.27
		c-1.56-0.29-3.1-0.61-4.62-0.98c-5.63-1.35-11.02-3.28-16.13-5.72c-0.76-0.36-1.51-0.74-2.25-1.13c-1.19-0.61-2.36-1.25-3.51-1.91
		c0.7-0.4,1.38-0.81,2.05-1.23c0.54-0.33,1.07-0.67,1.59-1.02c0.18-0.1,0.34-0.21,0.51-0.32c0.14-0.1,0.29-0.19,0.43-0.3
		c0.83-0.55,1.64-1.11,2.45-1.7c0.32-0.23,0.63-0.45,0.95-0.69c1.37-1.02,2.72-2.07,4.02-3.19c0.17-0.13,0.32-0.26,0.47-0.4
		c0.21-0.19,0.43-0.36,0.64-0.56c0.3-0.25,0.6-0.52,0.89-0.79c0.6-0.52,1.17-1.06,1.76-1.61c0.01-0.02,0.01-0.02,0.01-0.02
		c0.12-0.12,0.25-0.23,0.38-0.36c1.03-0.98,2.03-2.01,3.01-3.06c0.11-0.13,0.23-0.25,0.35-0.39c0.09-0.09,0.17-0.18,0.25-0.27
		c0.05-0.07,0.12-0.14,0.19-0.21c0.03-0.03,0.05-0.07,0.09-0.1c0.63-0.68,1.24-1.39,1.84-2.11c0.24-0.29,0.47-0.56,0.71-0.85
		c0.08-0.1,0.16-0.19,0.23-0.29c0.26-0.33,0.53-0.65,0.8-0.99c0.43-0.54,0.85-1.09,1.27-1.65c0.21-0.29,0.43-0.58,0.64-0.88
		c0.18-0.22,0.34-0.45,0.5-0.69c0.17-0.23,0.33-0.46,0.48-0.69c0.23-0.32,0.46-0.65,0.7-0.99c0.23-0.33,0.45-0.66,0.66-1.01
		c0.41-0.61,0.79-1.22,1.18-1.84c0.52-0.83,1.02-1.66,1.49-2.51c0.27-0.45,0.53-0.93,0.77-1.39c0.24-0.43,0.46-0.85,0.68-1.29
		c0.22-0.4,0.43-0.79,0.62-1.19c0.43-0.84,0.84-1.7,1.24-2.56c0.08-0.15,0.14-0.32,0.21-0.47c0.12-0.25,0.24-0.51,0.35-0.77
		c0.11-0.27,0.22-0.53,0.33-0.78c0.11-0.25,0.22-0.51,0.33-0.76c0.11-0.26,0.21-0.51,0.32-0.77c0.05-0.13,0.11-0.26,0.15-0.41
		c0.04-0.11,0.09-0.21,0.13-0.32c0.15-0.4,0.31-0.78,0.45-1.18c0.02-0.06,0.04-0.12,0.07-0.19c0.22-0.56,0.42-1.13,0.61-1.69
		c0.2-0.56,0.39-1.14,0.57-1.71c0.17-0.45,0.3-0.93,0.44-1.39c0.14-0.5,0.3-0.99,0.43-1.49c0.13-0.46,0.27-0.93,0.39-1.39
		c0.4-1.49,0.75-3,1.06-4.53c0.14-0.69,0.28-1.39,0.4-2.1c0.1-0.51,0.19-1.02,0.26-1.53c0.08-0.51,0.15-1,0.22-1.51
		c0.02-0.14,0.04-0.28,0.06-0.41c0.02-0.1,0.03-0.2,0.04-0.29c0.07-0.49,0.13-0.97,0.18-1.47c0.16-1.31,0.27-2.64,0.35-3.96
		c0.03-0.43,0.05-0.86,0.07-1.3c0.08-1.37,0.11-2.75,0.11-4.13c0-3.36-0.2-6.66-0.6-9.91c-0.1-0.83-0.2-1.64-0.33-2.47
		c-0.07-0.44-0.13-0.88-0.21-1.31c-0.03-0.17-0.06-0.32-0.09-0.47v-0.01c-0.14-0.82-0.3-1.63-0.45-2.44
		c-0.17-0.82-0.34-1.61-0.53-2.42c-0.01-0.09-0.03-0.18-0.05-0.26c-0.02-0.12-0.05-0.24-0.09-0.35c-0.02-0.09-0.04-0.18-0.07-0.26
		c-0.05-0.24-0.11-0.49-0.19-0.72c-0.11-0.46-0.23-0.92-0.36-1.37c-0.05-0.22-0.11-0.44-0.18-0.65c-0.12-0.46-0.26-0.93-0.4-1.38
		c-0.03-0.1-0.07-0.21-0.1-0.31c-0.21-0.69-0.43-1.39-0.66-2.07c-0.08-0.23-0.15-0.45-0.23-0.66c-0.23-0.71-0.48-1.4-0.75-2.1
		c-0.24-0.67-0.51-1.35-0.78-2.01c-0.3-0.75-0.62-1.49-0.94-2.22c0,0,0,0,0-0.01c-0.31-0.71-0.64-1.41-0.98-2.12
		c-0.06-0.14-0.12-0.28-0.2-0.41c-0.28-0.6-0.57-1.21-0.88-1.79c-0.35-0.69-0.69-1.36-1.07-2.02c-0.02-0.03-0.03-0.07-0.05-0.09
		c-0.01-0.04-0.04-0.09-0.07-0.13c-0.28-0.51-0.56-1.02-0.86-1.51c-0.07-0.11-0.13-0.22-0.2-0.33c-0.05-0.12-0.12-0.24-0.21-0.35
		c-0.34-0.6-0.71-1.19-1.08-1.79c-0.01-0.04-0.04-0.08-0.07-0.11c-0.4-0.64-0.81-1.27-1.22-1.89c-0.29-0.45-0.6-0.89-0.9-1.32
		c-0.14-0.21-0.29-0.41-0.44-0.61c-0.01-0.03-0.03-0.07-0.06-0.09c-0.28-0.39-0.55-0.77-0.84-1.16c-0.11-0.16-0.23-0.31-0.34-0.45
		c-1.05-1.41-2.15-2.79-3.3-4.13c-0.02-0.03-0.06-0.08-0.1-0.11c-0.42-0.51-0.85-1.01-1.3-1.5c-0.52-0.59-1.06-1.16-1.61-1.73
		c-0.08-0.09-0.15-0.17-0.23-0.24c-0.23-0.25-0.46-0.5-0.71-0.73c-0.23-0.24-0.47-0.49-0.72-0.72c-0.03-0.04-0.08-0.08-0.11-0.11
		c-0.53-0.53-1.06-1.04-1.6-1.54c-0.32-0.3-0.63-0.61-0.96-0.89c-0.26-0.23-0.53-0.47-0.79-0.71c-0.14-0.13-0.3-0.26-0.45-0.4
		c-0.43-0.39-0.89-0.77-1.34-1.15c0,0,0,0-0.01,0c-0.4-0.34-0.79-0.65-1.19-0.99c-0.18-0.12-0.33-0.26-0.5-0.39
		c-1.29-1.02-2.62-2.01-3.96-2.95c-0.61-0.42-1.23-0.85-1.84-1.26c-0.01-0.01-0.03-0.02-0.06-0.03c-0.02-0.01-0.04-0.03-0.08-0.04
		c-0.67-0.44-1.34-0.86-2-1.28c0,0,0,0-0.01,0c-0.68-0.42-1.36-0.83-2.04-1.22c12.18-7.04,26.32-11.08,41.4-11.08
		c9.69,0,18.99,1.67,27.63,4.72c4.8,1.7,9.4,3.83,13.75,6.35C407.53,124.25,424.19,151.01,424.19,181.66z"/>
	<path class="st22" d="M341.4,181.66c0,20.33-7.34,38.98-19.51,53.38c-6.16,7.29-13.56,13.51-21.89,18.32
		c-2.93-1.69-5.74-3.55-8.43-5.59c-20.02-15.1-32.97-39.1-32.97-66.12c0-3.35,0.2-6.66,0.6-9.91c3.14-26.44,18.76-49.06,40.8-61.81
		c22.05,12.74,37.66,35.36,40.8,61.81C341.2,175,341.4,178.31,341.4,181.66z"/>
	<g>
		<g>
			<g>
				<path class="st23" d="M369.79,127.97c-0.2-0.01-0.41-0.02-0.62-0.02H234.36c-4.1,0-7.42,3.32-7.42,7.42v91.4
					c0,4.11,3.32,7.43,7.42,7.43h55.12c-0.54,3.4-1.68,6.54-3.26,9.2c-2.87,4.85-7.23,8.16-12.2,8.78
					c-0.95,0.12-1.73,0.78-1.73,1.61c0,0.83,0.77,1.5,1.73,1.5h55.48c0.96,0,1.73-0.67,1.73-1.5c0-0.83-0.78-1.49-1.72-1.61
					c-5.7-0.71-10.6-4.95-13.37-10.99c-0.98-2.12-1.7-4.47-2.09-6.98h55.11c4.11,0,7.43-3.32,7.43-7.43v-91.4
					C376.6,131.48,373.61,128.29,369.79,127.97z M368.15,211.18c0,0.82-0.66,1.48-1.49,1.48H236.87c-0.83,0-1.49-0.66-1.49-1.48
					v-72.11c0-0.82,0.66-1.48,1.49-1.48h129.79c0.83,0,1.49,0.66,1.49,1.48V211.18z"/>
			</g>
		</g>
		<g>
			<g>
				<path class="st23" d="M309.52,151.86c-9.06,0-17.3,5.71-20.48,14.2c-0.01,0.02-0.02,0.06-0.03,0.09
					c-0.15,0.44-0.31,0.91-0.45,1.4c-0.83,2.31-2.63,6.69-5.5,10.59c-1.6,2.2-3.3,3.9-5.09,5.13c-4.57,3.17-9.74,3.18-15.44,0
					c-0.7-0.39-1.56-0.3-2.15,0.23c-0.61,0.52-0.81,1.36-0.52,2.11c0.08,0.17,6.05,14.78,24.53,18.2c2.45,0.45,5.12,0.72,8.03,0.72
					c8.36,0,16.04-2.23,22.82-6.61c5-3.22,8.5-7.01,10.56-9.63c1.42-1.59,2.6-3.38,3.51-5.29c0.12-0.25,0.22-0.49,0.28-0.64
					c1.19-2.74,1.79-5.64,1.79-8.64C331.36,161.67,321.56,151.86,309.52,151.86z M326.11,180.9c-0.01,0.03-0.02,0.06-0.03,0.09
					c-0.02,0.08-0.08,0.19-0.18,0.36c-0.76,1.63-1.75,3.13-2.95,4.46c-0.03,0.03-0.06,0.05-0.08,0.1c-1.89,2.4-5.09,5.86-9.69,8.83
					c-0.24,0.16-0.47,0.3-0.72,0.44c-3.48,2.14-7.2,3.67-11.14,4.58c-2.86,0.65-5.84,0.98-8.92,0.98c-1.31,0-2.57-0.04-3.77-0.17
					c-12.37-1.07-19.21-7.33-22.56-11.8c1.57,0.43,3.11,0.64,4.61,0.64c4.67,0,8.92-1.95,12.69-5.83c0.94-0.96,1.84-2.04,2.72-3.22
					c0.34-0.46,0.66-0.93,0.97-1.39c0.75-1.13,1.42-2.27,2.02-3.39c1.48-2.74,2.47-5.25,3.04-6.85c0.01-0.04,0.02-0.08,0.03-0.11
					c0.13-0.45,0.26-0.86,0.42-1.25l0.02-0.1c2.66-6.98,9.45-11.66,16.92-11.66c9.97,0,18.08,8.11,18.08,18.08
					C327.6,176.21,327.09,178.63,326.11,180.9z"/>
				<path class="st23" d="M301.47,190.32c-4.71,2.9-6.25,3.66-2.54,3.3c3.71-0.37,4.8,3.3,0.61,9.09l-1.38,0.5
					c-21.29,1.74-28.43-8.46-35.39-15.06c2.78,0.26,2.22,0.31,4.77-0.13c7.9-1.34,12.87-3.92,18.15-11.58
					c1.78-0.38,3.67-0.9,5.68-1.59c6.76-2.35,11.55-1.78,9.15,2.09c-2.41,3.86-3.29,7.49,0.94,7.87
					C305.7,185.19,306.18,187.42,301.47,190.32z"/>
			</g>
			<path class="st23" d="M382.78,109.93c-3.25,4.5-6.87,9.54-10.49,14.56c-0.84,1.16-1.68,2.33-2.51,3.48
				c-1.98,2.73-3.92,5.42-5.77,7.99c-0.4,0.55-0.8,1.09-1.18,1.63c-2.21,3.03-4.26,5.85-6.06,8.33c-4.24,5.83-7.06,9.72-7.06,9.72
				c-2.64,3.63-6.53,5.81-10.65,6.36c0,0,0,0.01-0.01,0c-3.9,0.54-8-0.36-11.44-2.87c-6.89-5-8.54-14.53-3.87-21.55
				c0.13-0.18,0.25-0.36,0.39-0.54c0.72-0.99,1.56-1.89,2.46-2.66l0.01-0.01c0.33-0.3,0.67-0.56,1.02-0.82c0,0,3.02-2.2,7.73-5.62
				c0.64-0.46,1.3-0.95,2-1.46c2.92-2.12,6.32-4.59,9.98-7.24c3.65-2.64,7.56-5.45,11.46-8.27c3.48-2.51,6.95-5.01,10.26-7.4
				C373.83,105.28,378.43,107.41,382.78,109.93z"/>
		</g>
	</g>
	<g>
		<g>
			<path class="st21" d="M178.15,276.59l3.25,12.79l3.58-12.79h2.66l3.58,12.79l3.25-12.79h3.94l-5.71,19.72h-3.08l-3.3-12.32
				l-3.33,12.32h-3.05l-5.71-19.72H178.15z"/>
			<path class="st21" d="M206.61,293.43c1.53,0,2.83-0.67,3.55-1.86h3.75c-1.28,3.27-3.91,5.13-7.21,5.13
				c-2.19,0-4.08-0.78-5.58-2.33c-1.42-1.47-2.22-3.5-2.22-5.49c0-2.08,0.72-3.94,2.11-5.41c1.53-1.61,3.5-2.5,5.55-2.5
				c2.58,0,4.91,1.22,6.46,3.36c1,1.33,1.42,2.91,1.42,4.88c0,0.25-0.03,0.5-0.03,0.75h-11.93
				C202.7,292.1,204.25,293.43,206.61,293.43z M206.55,284.16c-1.83,0-3.44,1.19-3.97,3.05h8.1
				C210.1,285.22,208.66,284.16,206.55,284.16z"/>
			<path class="st21" d="M224.19,281.06c1.94,0,3.74,0.67,5.13,1.97c1.64,1.5,2.52,3.61,2.52,5.8c0,2.39-1,4.58-2.8,6.13
				c-1.3,1.14-3,1.75-4.88,1.75c-1.75,0-3.25-0.5-4.63-1.61v1.22h-3.41v-19.72h3.41v6.02C220.86,281.5,222.33,281.06,224.19,281.06z
				 M223.78,293.26c2.64,0,4.49-1.91,4.49-4.38c0-2.39-1.91-4.41-4.33-4.41c-2.41,0-4.27,1.91-4.27,4.47
				C219.67,291.4,221.56,293.26,223.78,293.26z"/>
			<g>
				<g>
					<path class="st24" d="M234.09,296.31v-19.72h6.6c3.11,0,5.24,0.44,7.21,2.36c1.86,1.8,2.83,4.38,2.83,7.6
						c0,3.58-1.36,6.46-3.91,8.29c-1.72,1.25-3.58,1.47-6.02,1.47H234.09z M246.8,286.44c0-4.11-2.33-6.49-6.3-6.49h-2.52v12.98
						h2.58C244.8,292.93,246.8,290.93,246.8,286.44z"/>
				</g>
			</g>
			<g>
				<g>
					<path class="st24" d="M259.64,293.43c1.53,0,2.83-0.67,3.55-1.86h3.75c-1.28,3.27-3.91,5.13-7.21,5.13
						c-2.19,0-4.08-0.78-5.58-2.33c-1.41-1.47-2.22-3.5-2.22-5.49c0-2.08,0.72-3.94,2.11-5.41c1.53-1.61,3.5-2.5,5.55-2.5
						c2.58,0,4.91,1.22,6.46,3.36c1,1.33,1.41,2.91,1.41,4.88c0,0.25-0.03,0.5-0.03,0.75H255.5
						C255.72,292.1,257.28,293.43,259.64,293.43z M259.58,284.16c-1.83,0-3.44,1.19-3.97,3.05h8.1
						C263.13,285.22,261.69,284.16,259.58,284.16z"/>
				</g>
			</g>
			<g>
				<g>
					<path class="st24" d="M273.14,296.31l-5.66-14.9h3.69l3.47,9.9l3.58-9.9h3.61l-5.96,14.9H273.14z"/>
				</g>
			</g>
			<g>
				<g>
					<path class="st24" d="M289.7,293.43c1.53,0,2.83-0.67,3.55-1.86H297c-1.28,3.27-3.91,5.13-7.21,5.13
						c-2.19,0-4.08-0.78-5.58-2.33c-1.41-1.47-2.22-3.5-2.22-5.49c0-2.08,0.72-3.94,2.11-5.41c1.53-1.61,3.5-2.5,5.55-2.5
						c2.58,0,4.91,1.22,6.46,3.36c1,1.33,1.41,2.91,1.41,4.88c0,0.25-0.03,0.5-0.03,0.75h-11.93
						C285.79,292.1,287.34,293.43,289.7,293.43z M289.64,284.16c-1.83,0-3.44,1.19-3.97,3.05h8.1
						C293.19,285.22,291.75,284.16,289.64,284.16z"/>
				</g>
			</g>
			<g>
				<g>
					<path class="st24" d="M299.46,276.59h3.38v19.72h-3.38V276.59z"/>
				</g>
			</g>
			<g>
				<g>
					<path class="st24" d="M307.09,283.3c1.5-1.5,3.44-2.33,5.46-2.33c2.16,0,3.97,0.72,5.46,2.14c1.55,1.5,2.44,3.55,2.44,5.6
						c0,2.25-0.72,4.13-2.22,5.66c-1.5,1.55-3.41,2.33-5.63,2.33c-2.22,0-4.05-0.78-5.58-2.39c-1.41-1.53-2.19-3.41-2.19-5.52
						C304.84,286.71,305.62,284.77,307.09,283.3z M312.63,293.26c2.52,0,4.22-1.72,4.22-4.58c0-2.55-1.83-4.3-4.22-4.3
						c-2.5,0-4.22,1.8-4.22,4.38C308.42,291.57,310.08,293.26,312.63,293.26z"/>
				</g>
			</g>
			<g>
				<g>
					<path class="st24" d="M325.58,301.14h-3.41v-19.72h3.41v1.25c1.39-1.11,2.88-1.64,4.63-1.64c1.89,0,3.58,0.61,4.88,1.75
						c1.8,1.55,2.8,3.75,2.8,6.13c0,2.19-0.89,4.3-2.52,5.8c-1.39,1.3-3.19,2-5.13,2c-1.86,0-3.33-0.47-4.66-1.58V301.14z
						 M330,293.26c2.41,0,4.33-2.02,4.33-4.41c0-2.47-1.86-4.38-4.49-4.38c-2.22,0-4.11,1.86-4.11,4.33
						C325.72,291.35,327.58,293.26,330,293.26z"/>
				</g>
			</g>
			<path class="st22" d="M340.14,296.31v-19.72h5.1l5.02,14.34l4.99-14.34h5.1v19.72h-3.8l0.14-14.31l-4.99,14.31h-2.91L343.81,282
				l0.17,14.31H340.14z"/>
			<path class="st22" d="M370.38,293.43c1.53,0,2.83-0.67,3.55-1.86h3.75c-1.28,3.27-3.91,5.13-7.21,5.13
				c-2.19,0-4.08-0.78-5.58-2.33c-1.41-1.47-2.22-3.5-2.22-5.49c0-2.08,0.72-3.94,2.11-5.41c1.53-1.61,3.5-2.5,5.55-2.5
				c2.58,0,4.91,1.22,6.46,3.36c1,1.33,1.41,2.91,1.41,4.88c0,0.25-0.03,0.5-0.03,0.75h-11.93
				C366.46,292.1,368.02,293.43,370.38,293.43z M370.32,284.16c-1.83,0-3.44,1.19-3.97,3.05h8.1
				C373.87,285.22,372.43,284.16,370.32,284.16z"/>
			<path class="st22" d="M383.52,283.11c1.03-1.36,2.3-2,4-2c2.16,0,3.75,0.83,4.8,2.44c0.89,1.39,0.97,2.94,0.97,4.88v7.88h-3.47
				v-6.6c0-3.52-0.56-5.21-3.08-5.21s-3.25,1.83-3.25,5.44v6.38h-3.36v-14.9h3.38V283.11z"/>
			<path class="st22" d="M397.14,284.5h-2.27v-3.08h2.27v-4.83h3.47v4.83h2.3v3.08h-2.3v11.82h-3.47V284.5z"/>
			<path class="st22" d="M416.22,294.48c-0.83,1.5-2.33,2.16-4.63,2.16c-4.44,0-7.74-3.41-7.74-7.85c0-2.08,0.75-4.02,2.14-5.46
				c1.5-1.58,3.27-2.3,5.52-2.3c2.16,0,3.72,0.72,4.69,2.19v-1.8h3.38v14.9h-3.36V294.48z M411.7,293.15c2.16,0,4.13-1.94,4.13-4.24
				c0-2.5-2-4.44-4.19-4.44c-2.3,0-4.25,1.86-4.25,4.27C407.4,291.32,409.37,293.15,411.7,293.15z"/>
			<path class="st22" d="M422.4,276.59h3.38v19.72h-3.38V276.59z"/>
		</g>
	</g>
</g>
</svg>
